# xmcd
#
# Track frame offsets: 
#        187
#        22750
#        44100
#        61885
#        85000
#        104137
#        126595
#        145062
#        160440
#        180395
#
# Disc length: 2681 seconds
#
# Revision: 4
# Processed by: cddbd v1.5.2PL0 Copyright (c) Steve Scherf et al.
# Submitted via: ExactAudioCopy v1.0b2
#
DISCID=890a770a
DTITLE=Saxon - Forever Free
DYEAR=1992
DGENRE=Heavy Metal
TTITLE0=Forever Free
TTITLE1=Hole In The Sky
TTITLE2=Just Wanna Make Love To You
TTITLE3=Get Down And Dirty
TTITLE4=Iron Wheels
TTITLE5=One Step Away
TTITLE6=Can't Stop Rockin'
TTITLE7=Nighthunter
TTITLE8=Grind
TTITLE9=Cloud Nine
EXTD=YEAR: 1992
EXTT0=
EXTT1=
EXTT2=
EXTT3=
EXTT4=
EXTT5=
EXTT6=
EXTT7=
EXTT8=
EXTT9=
PLAYORDER=
